<svg width="111" height="49" viewBox="0 0 111 49" fill="none" xmlns="http://www.w3.org/2000/svg">
<g clip-path="url(#clip0_24_140)">
<path d="M52.2288 26.5653C52.8365 30.2579 53.1856 30.8968 52.5532 33.1126C50.4803 40.3741 42.0578 40.9327 29.3081 42.822C16.5583 44.711 8.34578 45.7378 4.6445 39.3319C3.515 37.3771 2.41734 36.0896 3.38239 31.6599C4.66913 25.7536 5.30193 20.6349 8.09225 14.5295C10.9285 8.3235 12.6777 1.70409 22.3091 0.277058C25.7232 -0.228779 30.8169 2.63049 37.1659 8.21822C41.7499 12.2527 47.637 19.7567 52.2288 26.5653Z" fill="url(#paint0_linear_24_140)"/>
<g filter="url(#filter0_di_24_140)">
<path d="M44.7936 42.1782C42.6676 45.3241 42.4826 46.0219 40.4605 47.282C33.8344 51.4114 27.1409 46.5279 16.279 39.9157C5.41716 33.3036 -1.44637 28.9021 0.260518 21.7781C0.781391 19.6042 0.859703 17.9497 4.67767 15.2421C9.76846 11.632 13.8193 8.19966 20.1744 5.38697C26.6341 2.52801 32.5692 -1.32471 40.7745 3.67034C43.683 5.44091 45.4967 10.7872 46.343 18.9656C46.9543 24.8705 46.1154 34.1921 44.7936 42.1782Z" fill="url(#paint1_linear_24_140)"/>
</g>
<path d="M37.992 29.3383C34.367 35.3912 26.2581 37.5091 19.8804 34.0686C13.5027 30.6282 11.2712 22.9323 14.8963 16.8794C18.5214 10.8265 26.6302 8.70861 33.0079 12.1491C39.3856 15.5895 41.6171 23.2854 37.992 29.3383Z" fill="#171E31"/>
<path d="M32.7357 16.1534C32.5705 15.9965 32.3697 15.9181 32.1336 15.9181C32.0391 15.9181 31.9563 15.9294 31.8856 15.9517L24.5179 18.1032C24.3409 18.1593 24.1962 18.2587 24.084 18.4016C23.9718 18.5445 23.9157 18.7028 23.9157 18.8765V27.0037C23.402 26.7851 22.8353 26.6758 22.2155 26.6758C21.9498 26.6758 21.665 26.7052 21.361 26.7639C21.0568 26.8227 20.7513 26.9123 20.4444 27.0328C20.1373 27.1533 19.8835 27.3229 19.6827 27.5412C19.482 27.7597 19.3817 28.0092 19.3817 28.2893C19.3817 28.5695 19.482 28.8188 19.6827 29.0374C19.8835 29.2558 20.1373 29.4253 20.4444 29.5458C20.7514 29.6663 21.0569 29.7559 21.361 29.8147C21.665 29.8734 21.9498 29.9027 22.2155 29.9027C22.4811 29.9027 22.7659 29.8734 23.07 29.8147C23.3741 29.7559 23.6796 29.6663 23.9866 29.5458C24.2935 29.4253 24.5473 29.2557 24.7481 29.0374C24.949 28.8188 25.0492 28.5695 25.0492 28.2893V22.3307L31.8502 20.3388V24.852C31.3364 24.6335 30.7698 24.5241 30.1499 24.5241C29.8843 24.5241 29.5994 24.5534 29.2954 24.6123C28.9913 24.671 28.6859 24.7606 28.3788 24.8811C28.0719 25.0016 27.8179 25.1712 27.6171 25.3897C27.4165 25.608 27.3159 25.8575 27.3159 26.1376C27.3159 26.4179 27.4165 26.6671 27.6171 26.8857C27.8179 27.1042 28.0718 27.2737 28.3788 27.3941C28.6858 27.5146 28.9913 27.6042 29.2954 27.6631C29.5994 27.7219 29.8843 27.7511 30.1499 27.7511C30.4155 27.7511 30.7004 27.7219 31.0044 27.6631C31.3084 27.6042 31.6138 27.5146 31.9211 27.3941C32.228 27.2737 32.4817 27.1041 32.6825 26.8857C32.8835 26.6671 32.9837 26.4178 32.9837 26.1376V16.7247C32.9836 16.5006 32.9012 16.3102 32.7357 16.1534Z" fill="url(#paint2_linear_24_140)"/>
</g>
<path d="M60.962 18.66H64.076L65.696 23.826C65.768 24.054 65.84 24.3 65.912 24.564C65.996 24.828 66.074 25.092 66.146 25.356C66.218 25.62 66.284 25.878 66.344 26.13C66.404 26.382 66.452 26.616 66.488 26.832H66.56C66.596 26.64 66.644 26.418 66.704 26.166C66.764 25.902 66.83 25.632 66.902 25.356C66.974 25.08 67.046 24.81 67.118 24.546C67.19 24.282 67.256 24.042 67.316 23.826L68.882 18.66H71.996L72.842 30H70.52C70.448 28.752 70.376 27.504 70.304 26.256C70.232 25.008 70.184 23.748 70.16 22.476L70.142 21H70.088C69.932 21.66 69.758 22.35 69.566 23.07C69.386 23.79 69.212 24.42 69.044 24.96L67.442 30H65.534L63.896 24.942C63.692 24.294 63.5 23.61 63.32 22.89C63.14 22.17 62.996 21.54 62.888 21H62.834C62.834 21.432 62.828 21.888 62.816 22.368C62.804 22.836 62.786 23.304 62.762 23.772C62.75 24.24 62.732 24.702 62.708 25.158C62.696 25.602 62.678 26.01 62.654 26.382L62.438 30H60.152L60.962 18.66ZM81.3424 21.414H83.7364V30H81.9544L81.7024 29.028H81.6304C81.4984 29.16 81.3424 29.298 81.1624 29.442C80.9944 29.574 80.7904 29.7 80.5504 29.82C80.3224 29.928 80.0584 30.018 79.7584 30.09C79.4704 30.162 79.1464 30.198 78.7864 30.198C77.8624 30.198 77.1304 29.94 76.5904 29.424C76.0624 28.908 75.7984 28.146 75.7984 27.138V21.414H78.1924V26.94C78.1924 27.456 78.3124 27.828 78.5524 28.056C78.8044 28.284 79.1224 28.398 79.5064 28.398C79.9384 28.398 80.3044 28.308 80.6044 28.128C80.9164 27.948 81.1624 27.738 81.3424 27.498V21.414ZM91.9722 23.466C91.2642 23.13 90.5802 22.962 89.9202 22.962C89.5362 22.962 89.2362 23.028 89.0202 23.16C88.8162 23.292 88.7142 23.472 88.7142 23.7C88.7142 23.928 88.8042 24.114 88.9842 24.258C89.1762 24.402 89.5542 24.558 90.1182 24.726L90.6582 24.888C91.4022 25.104 91.9662 25.416 92.3502 25.824C92.7342 26.232 92.9262 26.76 92.9262 27.408C92.9262 28.26 92.5962 28.938 91.9362 29.442C91.2882 29.946 90.4062 30.198 89.2902 30.198C88.1502 30.198 87.1722 29.994 86.3562 29.586L86.8962 27.822C87.2442 28.002 87.6102 28.152 87.9942 28.272C88.3782 28.38 88.7682 28.434 89.1642 28.434C89.6442 28.434 89.9922 28.362 90.2082 28.218C90.4362 28.062 90.5502 27.864 90.5502 27.624C90.5502 27.372 90.4422 27.18 90.2262 27.048C90.0102 26.904 89.6022 26.748 89.0022 26.58L88.4442 26.418C87.7242 26.178 87.1962 25.86 86.8602 25.464C86.5242 25.068 86.3562 24.54 86.3562 23.88C86.3562 23.1 86.6502 22.464 87.2382 21.972C87.8262 21.48 88.6482 21.234 89.7042 21.234C90.7482 21.234 91.6722 21.42 92.4762 21.792L91.9722 23.466ZM95.7085 30V21.414H98.1025V30H95.7085ZM96.9145 19.578C96.5065 19.578 96.1885 19.464 95.9605 19.236C95.7325 18.996 95.6185 18.702 95.6185 18.354C95.6185 18.006 95.7325 17.718 95.9605 17.49C96.1885 17.25 96.5065 17.13 96.9145 17.13C97.3105 17.13 97.6225 17.25 97.8505 17.49C98.0905 17.718 98.2105 18.006 98.2105 18.354C98.2105 18.702 98.0965 18.996 97.8685 19.236C97.6405 19.464 97.3225 19.578 96.9145 19.578ZM105.885 28.434C106.269 28.434 106.605 28.386 106.893 28.29C107.193 28.182 107.439 28.08 107.631 27.984L108.081 29.64C107.841 29.772 107.493 29.898 107.037 30.018C106.581 30.138 106.083 30.198 105.543 30.198C104.895 30.198 104.289 30.102 103.725 29.91C103.161 29.718 102.669 29.436 102.249 29.064C101.841 28.68 101.517 28.212 101.277 27.66C101.037 27.108 100.917 26.466 100.917 25.734C100.917 25.062 101.031 24.45 101.259 23.898C101.487 23.346 101.805 22.872 102.213 22.476C102.621 22.08 103.113 21.774 103.689 21.558C104.265 21.342 104.895 21.234 105.579 21.234C105.951 21.234 106.341 21.27 106.749 21.342C107.169 21.414 107.607 21.57 108.063 21.81L107.559 23.466C107.307 23.322 107.031 23.208 106.731 23.124C106.443 23.028 106.149 22.98 105.849 22.98C105.105 22.98 104.499 23.208 104.031 23.664C103.575 24.12 103.347 24.786 103.347 25.662C103.347 26.178 103.419 26.616 103.563 26.976C103.719 27.324 103.917 27.606 104.157 27.822C104.397 28.038 104.667 28.194 104.967 28.29C105.267 28.386 105.573 28.434 105.885 28.434Z" fill="#5D80F9"/>
<defs>
<filter id="filter0_di_24_140" x="-3.99915" y="-5.74487" width="58.5455" height="66.5485" filterUnits="userSpaceOnUse" color-interpolation-filters="sRGB">
<feFlood flood-opacity="0" result="BackgroundImageFix"/>
<feColorMatrix in="SourceAlpha" type="matrix" values="0 0 0 0 0 0 0 0 0 0 0 0 0 0 0 0 0 0 127 0" result="hardAlpha"/>
<feOffset dx="2" dy="6"/>
<feGaussianBlur stdDeviation="3"/>
<feComposite in2="hardAlpha" operator="out"/>
<feColorMatrix type="matrix" values="0 0 0 0 0 0 0 0 0 0 0 0 0 0 0 0 0 0 0.13 0"/>
<feBlend mode="normal" in2="BackgroundImageFix" result="effect1_dropShadow_24_140"/>
<feBlend mode="normal" in="SourceGraphic" in2="effect1_dropShadow_24_140" result="shape"/>
<feColorMatrix in="SourceAlpha" type="matrix" values="0 0 0 0 0 0 0 0 0 0 0 0 0 0 0 0 0 0 127 0" result="hardAlpha"/>
<feOffset dx="4" dy="-7"/>
<feGaussianBlur stdDeviation="4"/>
<feComposite in2="hardAlpha" operator="arithmetic" k2="-1" k3="1"/>
<feColorMatrix type="matrix" values="0 0 0 0 0 0 0 0 0 0 0 0 0 0 0 0 0 0 0.2 0"/>
<feBlend mode="normal" in2="shape" result="effect2_innerShadow_24_140"/>
</filter>
<linearGradient id="paint0_linear_24_140" x1="13.1428" y1="22.9912" x2="44.6304" y2="30.2755" gradientUnits="userSpaceOnUse">
<stop stop-color="#26B676"/>
<stop offset="1" stop-color="#4968F4"/>
</linearGradient>
<linearGradient id="paint1_linear_24_140" x1="30.8632" y1="1.81198" x2="2.0714" y2="42.8528" gradientUnits="userSpaceOnUse">
<stop stop-color="#27B27B"/>
<stop offset="1" stop-color="#4969F2"/>
</linearGradient>
<linearGradient id="paint2_linear_24_140" x1="32.4169" y1="16.456" x2="21.7515" y2="29.3793" gradientUnits="userSpaceOnUse">
<stop stop-color="#309E9B"/>
<stop offset="1" stop-color="#407BD5"/>
</linearGradient>
<clipPath id="clip0_24_140">
<rect width="53" height="49" fill="white"/>
</clipPath>
</defs>
</svg>
