<svg width="53" height="49" viewBox="0 0 53 49" fill="none" xmlns="http://www.w3.org/2000/svg">
<g clip-path="url(#clip0_20_128)">
<path d="M52.2287 26.5653C52.8364 30.2579 53.1854 30.8968 52.5531 33.1126C50.4802 40.3741 42.0577 40.9327 29.3079 42.822C16.5582 44.711 8.34566 45.7378 4.64438 39.3319C3.51488 37.3771 2.41722 36.0896 3.38226 31.6599C4.66901 25.7536 5.30181 20.6349 8.09212 14.5295C10.9284 8.3235 12.6775 1.70409 22.309 0.277058C25.7231 -0.228779 30.8168 2.63049 37.1657 8.21822C41.7498 12.2527 47.6369 19.7567 52.2287 26.5653Z" fill="url(#paint0_linear_20_128)"/>
<g filter="url(#filter0_di_20_128)">
<path d="M44.7938 42.1782C42.6677 45.3241 42.4827 46.0219 40.4606 47.282C33.8346 51.4114 27.1411 46.5279 16.2792 39.9157C5.41728 33.3036 -1.44625 28.9021 0.260641 21.7781C0.781514 19.6042 0.859825 17.9497 4.67779 15.2421C9.76858 11.632 13.8194 8.19966 20.1745 5.38697C26.6342 2.52801 32.5693 -1.32471 40.7746 3.67034C43.6831 5.44091 45.4968 10.7872 46.3431 18.9656C46.9544 24.8705 46.1156 34.1921 44.7938 42.1782Z" fill="url(#paint1_linear_20_128)"/>
</g>
<path d="M37.992 29.3383C34.367 35.3912 26.2581 37.5091 19.8804 34.0686C13.5027 30.6282 11.2712 22.9323 14.8963 16.8794C18.5214 10.8265 26.6302 8.70861 33.0079 12.1491C39.3856 15.5895 41.6171 23.2854 37.992 29.3383Z" fill="#171E31"/>
<path d="M32.7355 16.1534C32.5704 15.9965 32.3696 15.9181 32.1334 15.9181C32.039 15.9181 31.9562 15.9294 31.8855 15.9517L24.5178 18.1032C24.3407 18.1593 24.196 18.2587 24.0838 18.4016C23.9717 18.5445 23.9156 18.7028 23.9156 18.8765V27.0037C23.4019 26.7851 22.8352 26.6758 22.2154 26.6758C21.9497 26.6758 21.6648 26.7052 21.3609 26.7639C21.0567 26.8227 20.7511 26.9123 20.4442 27.0328C20.1372 27.1533 19.8834 27.3229 19.6826 27.5412C19.4819 27.7597 19.3816 28.0092 19.3816 28.2893C19.3816 28.5695 19.4819 28.8188 19.6826 29.0374C19.8834 29.2558 20.1372 29.4253 20.4442 29.5458C20.7513 29.6663 21.0568 29.7559 21.3609 29.8147C21.6648 29.8734 21.9497 29.9027 22.2154 29.9027C22.481 29.9027 22.7658 29.8734 23.0698 29.8147C23.374 29.7559 23.6794 29.6663 23.9865 29.5458C24.2934 29.4253 24.5472 29.2557 24.7479 29.0374C24.9488 28.8188 25.0491 28.5695 25.0491 28.2893V22.3307L31.8501 20.3388V24.852C31.3363 24.6335 30.7697 24.5241 30.1498 24.5241C29.8842 24.5241 29.5993 24.5534 29.2952 24.6123C28.9911 24.671 28.6858 24.7606 28.3787 24.8811C28.0718 25.0016 27.8178 25.1712 27.617 25.3897C27.4163 25.608 27.3157 25.8575 27.3157 26.1376C27.3157 26.4179 27.4163 26.6671 27.617 26.8857C27.8178 27.1042 28.0717 27.2737 28.3787 27.3941C28.6857 27.5146 28.9911 27.6042 29.2952 27.6631C29.5993 27.7219 29.8841 27.7511 30.1498 27.7511C30.4154 27.7511 30.7003 27.7219 31.0043 27.6631C31.3083 27.6042 31.6137 27.5146 31.9209 27.3941C32.2279 27.2737 32.4816 27.1041 32.6824 26.8857C32.8834 26.6671 32.9835 26.4178 32.9835 26.1376V16.7247C32.9834 16.5006 32.9011 16.3102 32.7355 16.1534Z" fill="url(#paint2_linear_20_128)"/>
</g>
<defs>
<filter id="filter0_di_20_128" x="-3.99902" y="-5.74487" width="58.5455" height="66.5485" filterUnits="userSpaceOnUse" color-interpolation-filters="sRGB">
<feFlood flood-opacity="0" result="BackgroundImageFix"/>
<feColorMatrix in="SourceAlpha" type="matrix" values="0 0 0 0 0 0 0 0 0 0 0 0 0 0 0 0 0 0 127 0" result="hardAlpha"/>
<feOffset dx="2" dy="6"/>
<feGaussianBlur stdDeviation="3"/>
<feComposite in2="hardAlpha" operator="out"/>
<feColorMatrix type="matrix" values="0 0 0 0 0 0 0 0 0 0 0 0 0 0 0 0 0 0 0.13 0"/>
<feBlend mode="normal" in2="BackgroundImageFix" result="effect1_dropShadow_20_128"/>
<feBlend mode="normal" in="SourceGraphic" in2="effect1_dropShadow_20_128" result="shape"/>
<feColorMatrix in="SourceAlpha" type="matrix" values="0 0 0 0 0 0 0 0 0 0 0 0 0 0 0 0 0 0 127 0" result="hardAlpha"/>
<feOffset dx="4" dy="-7"/>
<feGaussianBlur stdDeviation="4"/>
<feComposite in2="hardAlpha" operator="arithmetic" k2="-1" k3="1"/>
<feColorMatrix type="matrix" values="0 0 0 0 0 0 0 0 0 0 0 0 0 0 0 0 0 0 0.2 0"/>
<feBlend mode="normal" in2="shape" result="effect2_innerShadow_20_128"/>
</filter>
<linearGradient id="paint0_linear_20_128" x1="13.1427" y1="22.9912" x2="44.6303" y2="30.2755" gradientUnits="userSpaceOnUse">
<stop stop-color="#26B676"/>
<stop offset="1" stop-color="#4968F4"/>
</linearGradient>
<linearGradient id="paint1_linear_20_128" x1="30.8633" y1="1.81198" x2="2.07153" y2="42.8528" gradientUnits="userSpaceOnUse">
<stop stop-color="#27B27B"/>
<stop offset="1" stop-color="#4969F2"/>
</linearGradient>
<linearGradient id="paint2_linear_20_128" x1="32.4168" y1="16.456" x2="21.7514" y2="29.3793" gradientUnits="userSpaceOnUse">
<stop stop-color="#309E9B"/>
<stop offset="1" stop-color="#407BD5"/>
</linearGradient>
<clipPath id="clip0_20_128">
<rect width="53" height="49" fill="white"/>
</clipPath>
</defs>
</svg>
